PathFileType	4	(X/Y/Z)	/Users/itak/Documents/Research/Walk-IL/dataset/trc/00245_00009.trc
DataRate	CameraRate	NumFrames	NumMarkers	Units	OrigDataRate	OrigDataStartFrame	OrigNumFrames
100.000000	100.000000	4	53	mm	100.000000	391	782
Frame#	Time	RPSI			LPSI			L3			STRN			T10			C7			CLAV			RBAK			LBAK			LSHO			LUPA			LAEL			LAOL			LWTS			LWPS			LFRA			LIFD			LHPS			LHTS			RSHO			RUPA			RAEL			RAOL			RWTS			RWPS			RFRA			RIFD			RHTS			RHPS			RBHD			LFHD			RFHD			LBHD			LHIP			RHIP			RASI			LASI			LKNE			LTHI			LANK			LTIP			LTOE			LMT1			LMT5			LHEE			RKNE			RTHI			RANK			RTIP			RTOE			RMT1			RMT5			RHEE			
		X1	Y1	Z1	X2	Y2	Z2	X3	Y3	Z3	X4	Y4	Z4	X5	Y5	Z5	X6	Y6	Z6	X7	Y7	Z7	X8	Y8	Z8	X9	Y9	Z9	X10	Y10	Z10	X11	Y11	Z11	X12	Y12	Z12	X13	Y13	Z13	X14	Y14	Z14	X15	Y15	Z15	X16	Y16	Z16	X17	Y17	Z17	X18	Y18	Z18	X19	Y19	Z19	X20	Y20	Z20	X21	Y21	Z21	X22	Y22	Z22	X23	Y23	Z23	X24	Y24	Z24	X25	Y25	Z25	X26	Y26	Z26	X27	Y27	Z27	X28	Y28	Z28	X29	Y29	Z29	X30	Y30	Z30	X31	Y31	Z31	X32	Y32	Z32	X33	Y33	Z33	X34	Y34	Z34	X35	Y35	Z35	X36	Y36	Z36	X37	Y37	Z37	X38	Y38	Z38	X39	Y39	Z39	X40	Y40	Z40	X41	Y41	Z41	X42	Y42	Z42	X43	Y43	Z43	X44	Y44	Z44	X45	Y45	Z45	X46	Y46	Z46	X47	Y47	Z47	X48	Y48	Z48	X49	Y49	Z49	X50	Y50	Z50	X51	Y51	Z51	X52	Y52	Z52	X53	Y53	Z53	

392	3.91	-272.0270385742188	1023.011352539062	-423.5300903320312	-329.406494140625	1028.949951171875	-529.8501586914062	-308.8463745117188	1117.231811523438	-480.5280151367188	-83.29804992675781	1293.6591796875	-601.3228759765625	-299.2198791503906	1244.130126953125	-468.2254943847656	-231.0216522216797	1502.32568359375	-491.3438415527344	-96.56858062744141	1412.076171875	-581.697509765625	-265.8663024902344	1362.1806640625	-393.0716857910156	-308.290283203125	1472.577392578125	-574.7426147460938	-263.6387023925781	1474.353393554688	-670.892822265625	-344.3730773925781	1362.967529296875	-719.5926513671875	-375.853271484375	1155.246826171875	-747.01416015625	-405.8853759765625	1143.356079101562	-665.677001953125	-301.7088623046875	908.5980834960938	-753.4708251953125	-370.3438720703125	901.6204833984375	-801.6583862304688	-380.3583374023438	1047.663208007812	-770.7329711914062	-331.1906433105469	715.4879150390625	-759.0859985351562	-368.2593688964844	811.7937622070312	-807.3299560546875	-304.8526000976562	803.555419921875	-787.95703125	-95.13031005859375	1448.97509765625	-380.7606506347656	-80.69943237304688	1380.981201171875	-315.4268188476562	-94.74979400634766	1099.23095703125	-280.2898864746094	-169.6764373779297	1096.459594726562	-342.6527404785156	15.19402313232422	906.4825439453125	-409.3905944824219	0.1084058657288551	879.2166748046875	-330.6544189453125	-63.67911529541016	1031.01220703125	-289.0526123046875	40.2823486328125	719.2501220703125	-449.6094665527344	66.0572509765625	791.9100952148438	-431.584228515625	43.4571418762207	779.5830078125	-363.4530639648438	-168.1306915283203	1661.757934570312	-480.6747131347656	7.195795059204102	1678.907104492188	-624.6842041015625	31.88865661621094	1671.517822265625	-527.9293823242188	-158.3688201904297	1670.353759765625	-620.6022338867188	-301.9342041015625	974.8763427734375	-702.4616088867188	-135.4198455810547	982.79150390625	-376.298583984375	-67.01094818115234	1027.952392578125	-452.2878723144531	-190.24365234375	1022.088500976562	-703.5507202148438	-137.3157958984375	518.7413940429688	-791.6810302734375	-186.6210632324219	656.016845703125	-782.6600952148438	-421.8978576660156	133.6422576904297	-695.982421875	-274.5513305664062	341.5628356933594	-754.390625	-246.4234008789062	52.91080856323242	-787.8795166015625	-266.9663696289062	61.3055305480957	-712.2379760742188	-351.8397216796875	82.46684265136719	-786.2653198242188	-426.4521179199219	158.2002105712891	-621.108642578125	-123.1276626586914	499.3768310546875	-501.2877502441406	-81.76821136474609	758.5692749023438	-426.5874938964844	-261.3710021972656	33.31995391845703	-537.137939453125	-137.5039520263672	380.5664367675781	-535.1796875	-83.96401214599609	39.16598129272461	-661.8460083007812	-154.3102416992188	35.48964691162109	-678.3203735351562	-151.2955932617188	36.62458419799805	-558.211181640625	-342.1697387695312	32.78724670410156	-565.4879760742188	
393	3.92	-268.5849609375	1023.427062988281	-427.6431884765625	-324.5300903320312	1029.53369140625	-534.69921875	-304.3768005371094	1117.734252929688	-484.8482360839844	-77.29183959960938	1293.845825195312	-603.4554443359375	-294.5372619628906	1244.54736328125	-472.1008605957031	-225.5816650390625	1502.6064453125	-494.6240844726562	-90.67579650878906	1412.286987304688	-584.0513916015625	-261.1705017089844	1362.59326171875	-396.4439086914062	-302.4404602050781	1472.770751953125	-578.4644165039062	-257.1932373046875	1474.495483398438	-674.3438720703125	-337.7669067382812	1363.168579101562	-723.4924926757812	-369.5146484375	1155.555541992188	-751.0013427734375	-399.7282104492188	1143.740356445312	-669.722412109375	-297.3215026855469	908.2440795898438	-757.2725830078125	-365.8545227050781	901.9708251953125	-805.6620483398438	-374.6552429199219	1048.061645507812	-774.7276000976562	-328.4788818359375	715.4779663085938	-763.1292114257812	-364.6186218261719	812.1649780273438	-811.3871459960938	-302.8278503417969	802.1011962890625	-791.1697387695312	-90.50914001464844	1449.35791015625	-383.165771484375	-76.3883056640625	1381.441650390625	-317.7024230957031	-89.93775177001953	1099.538208007812	-282.6759033203125	-164.9144439697266	1096.730224609375	-344.9755554199219	21.15853691101074	908.8456420898438	-413.7510070800781	6.375124454498291	880.5762329101562	-335.345458984375	-58.46517181396484	1031.483154296875	-292.0576171875	47.98696899414062	722.3447875976562	-456.1484375	73.09222412109375	795.0426025390625	-437.2577209472656	50.59323120117188	781.6953125	-369.2582702636719	-162.9131774902344	1662.021606445312	-483.7347412109375	13.33452224731445	1679.135986328125	-626.6422729492188	37.38040542602539	1671.8525390625	-529.6710815429688	-152.2466125488281	1670.4873046875	-623.5912475585938	-294.2793273925781	975.8404541015625	-707.2393798828125	-132.8102111816406	982.7970581054688	-378.2743225097656	-63.07241058349609	1027.956909179688	-453.4382934570312	-182.8063812255859	1022.606079101562	-706.2730712890625	-124.9317321777344	520.4388427734375	-793.166748046875	-175.79931640625	657.1841430664062	-785.147705078125	-400.2811584472656	125.3937911987305	-714.0075073242188	-258.5214233398438	338.8925476074219	-763.447998046875	-220.7138519287109	53.61298370361328	-805.9614868164062	-242.898193359375	58.44462585449219	-730.4092407226562	-327.050048828125	80.23699951171875	-805.1788940429688	-407.1080017089844	146.6667022705078	-638.2424926757812	-122.3108520507812	499.0399169921875	-501.2678527832031	-79.83746337890625	758.2810668945312	-427.4931640625	-261.3866577148438	33.32769393920898	-537.1551513671875	-136.7458038330078	380.3172607421875	-535.1886596679688	-84.01224517822266	39.14839172363281	-661.8187255859375	-154.3878631591797	35.40337753295898	-678.2278442382812	-151.3150024414062	36.61054229736328	-558.189697265625	-342.17919921875	32.84492111206055	-565.4711303710938	
394	3.93	-265.1536560058594	1023.814025878906	-431.7824401855469	-319.6368408203125	1030.08935546875	-539.5535278320312	-299.8497314453125	1118.224609375	-489.1958923339844	-71.23336791992188	1293.984252929688	-605.5418090820312	-289.78466796875	1244.937866210938	-475.9818420410156	-220.1015319824219	1502.851806640625	-497.9057006835938	-84.73950958251953	1412.458374023438	-586.3514404296875	-256.4786376953125	1362.967163085938	-399.8475036621094	-296.5245666503906	1472.944580078125	-582.2252197265625	-250.6406707763672	1474.621704101562	-677.813232421875	-331.0490417480469	1363.359008789062	-727.4313354492188	-363.0821838378906	1155.850463867188	-754.9996337890625	-393.472900390625	1144.118896484375	-673.7783813476562	-292.6877136230469	907.9510498046875	-761.13818359375	-361.1723022460938	902.318603515625	-809.68603515625	-368.8279724121094	1048.453369140625	-778.7453002929688	-325.3616638183594	715.5198974609375	-767.264892578125	-360.7209167480469	812.5467529296875	-815.4942626953125	-300.6422729492188	800.6162719726562	-794.41650390625	-85.92044067382812	1449.696655273438	-385.5250854492188	-72.13706970214844	1381.864990234375	-319.9337158203125	-85.21532440185547	1099.815673828125	-285.0061340332031	-160.1777496337891	1096.967407226562	-347.2864685058594	27.06805992126465	911.10986328125	-417.8475646972656	12.51891326904297	881.8871459960938	-339.7679443359375	-53.31798553466797	1031.938842773438	-294.9403076171875	55.58852767944336	725.3358154296875	-462.2579040527344	80.04169464111328	798.0440063476562	-442.5520629882812	57.62230682373047	783.7506713867188	-374.6953125	-157.6798553466797	1662.219604492188	-486.735107421875	19.48373794555664	1679.36669921875	-628.5205078125	42.88525009155273	1672.1708984375	-531.341552734375	-146.0982971191406	1670.586791992188	-626.5050048828125	-286.5633239746094	976.80419921875	-712.030029296875	-130.2064361572266	982.779541015625	-380.2373352050781	-59.1677360534668	1027.95263671875	-454.594970703125	-175.4068603515625	1023.042236328125	-708.96630859375	-112.8274536132812	522.0120849609375	-794.3969116210938	-165.2000427246094	658.2462768554688	-787.4212646484375	-377.5044860839844	117.2256317138672	-731.274169921875	-242.0245208740234	336.0428771972656	-772.1030883789062	-193.7508087158203	54.51176071166992	-822.0742797851562	-217.6847229003906	56.00711441040039	-746.826904296875	-300.9211730957031	77.99118041992188	-822.6661987304688	-386.7549438476562	135.4330749511719	-654.9072875976562	-121.3967971801758	498.7069702148438	-501.3223266601562	-77.84784698486328	757.9998168945312	-428.4762268066406	-261.3982543945312	33.34390640258789	-537.1602172851562	-135.9361419677734	380.0599060058594	-535.2517700195312	-84.04697418212891	39.14658737182617	-661.81689453125	-154.452392578125	35.33490371704102	-678.16064453125	-151.3357086181641	36.59085845947266	-558.1673583984375	-342.1785583496094	32.90810394287109	-565.4415893554688	
395	3.94	-261.6925048828125	1024.169677734375	-435.9288940429688	-314.7170715332031	1030.612670898438	-544.4003295898438	-295.2464599609375	1118.696899414062	-493.5693054199219	-65.12748718261719	1294.072631835938	-607.5810546875	-284.9469909667969	1245.300415039062	-479.8660888671875	-214.5914916992188	1503.063842773438	-501.1885070800781	-78.76039123535156	1412.588989257812	-588.5980834960938	-251.7857360839844	1363.296630859375	-403.2825012207031	-290.5422973632812	1473.097412109375	-586.0265502929688	-243.9788208007812	1474.732666015625	-681.2998046875	-324.2164306640625	1363.536865234375	-731.4098510742188	-356.5478820800781	1156.132568359375	-759.0126953125	-387.1253051757812	1144.489379882812	-677.85546875	-287.7902526855469	907.7207641601562	-765.05908203125	-356.2686157226562	902.6607055664062	-813.7315063476562	-362.85986328125	1048.83740234375	-782.7897338867188	-321.8535461425781	715.5989379882812	-771.4597778320312	-356.5451354980469	812.9284057617188	-819.6444702148438	-298.0725708007812	799.2457275390625	-797.75830078125	-81.36111450195312	1449.996459960938	-387.8424377441406	-67.94245910644531	1382.251098632812	-322.1224670410156	-80.58853912353516	1100.064086914062	-287.2983093261719	-155.472412109375	1097.172485351562	-349.6063232421875	32.92475128173828	913.2532348632812	-421.6783447265625	18.5514030456543	883.1453857421875	-343.9120178222656	-48.24714660644531	1032.375732421875	-297.705322265625	63.05035018920898	728.1948852539062	-467.9173278808594	86.89273834228516	800.8837890625	-447.4531860351562	64.52873229980469	785.7259521484375	-379.7500610351562	-152.4278106689453	1662.35693359375	-489.6829528808594	25.65827560424805	1679.582885742188	-630.3143310546875	48.41097640991211	1672.458984375	-532.9393920898438	-139.9106140136719	1670.651000976562	-629.3525390625	-278.8641052246094	977.7186889648438	-716.77783203125	-127.6388778686523	982.7192993164062	-382.1558532714844	-55.28187942504883	1027.937377929688	-455.7588806152344	-168.0575256347656	1023.398315429688	-711.635009765625	-100.9876403808594	523.4766845703125	-795.4383544921875	-154.8310089111328	659.2095336914062	-789.5311889648438	-353.626953125	109.2214660644531	-747.7195434570312	-225.0664672851562	333.0879211425781	-780.3583374023438	-165.5982666015625	55.53716278076172	-835.9249267578125	-191.4387664794922	54.01699066162109	-761.2090454101562	-273.4696655273438	75.65505981445312	-838.541259765625	-365.51611328125	124.6712341308594	-671.0614624023438	-120.3828506469727	498.38037109375	-501.4567260742188	-75.78655242919922	757.7232055664062	-429.5354614257812	-261.4062805175781	33.36508941650391	-537.1552124023438	-135.0888061523438	379.7918395996094	-535.3694458007812	-84.06807708740234	39.15803909301758	-661.8460083007812	-154.4889984130859	35.29973602294922	-678.1271362304688	-151.3575134277344	36.56335830688477	-558.1426391601562	-342.1687622070312	32.977783203125	-565.4033813476562	
